/* XPM */
static char *result[] = {
/* columns rows colors chars-per-pixel */
"100 100 18 1 ",
"  c #5B7E20",
". c #5D8223",
"X c #5B7E1F",
"o c #5F8925",
"O c #608725",
"+ c #638B26",
"@ c #679028",
"# c #5F8828",
"$ c #5D8328",
"% c #618728",
"& c #5C7F28",
"* c #638C28",
"= c #689329",
"- c #669027",
"; c #557F22",
": c #538224",
"> c #4F8122",
", c white",
/* pixels */
" .XXXX..XXXXXX               X       X       X   X              .XXXXXXXXXX X    X    X       X     ",
" .oXXXO.XXXXXXX  X    X                       XX               X.OXXX.XXXX                 X     X  ",
"X.++XX+OX.XX                                         XX X      XO@. O+.X   X                     X  ",
"X..@#.+#O.XX        X    X  XX   XX      X         X            .+O +OXXXX    X                     ",
"XX #$...O.         XX       XXX  X X              X              O%.% X     X  X              X     ",
"XX  &&&&  X           X              X    X X      X    X         & & X         X               X   ",
"XXX        X      X                    X                XX         XXX        X   X                X",
"XXX          X        X             X         X    XX  X           XXX                  X           ",
"               XXXXX X            X OXXXXXXX   X    .   OO                   XX        X       X    ",
"    X           XXXX      X       X.+XXOXXXX       XOOX OO XX   X                 X        X      X ",
"   X       XXX  XX.X   X      X XX O@X*+ XXX        .=O -+XX             X X  XXX..X  XX            ",
"         X   X..XXOO         X   XXO*%@ XX X       X.=* @OXXX      XX        X. X.O   XX  X         ",
"       X     X.+OXO@ XXX     X      $O        X    XX%%O%X                  X O+..-OXXXX  X       X ",
"              XO=OO@.XXO      X     &&       XX     X&O&O         X            =O.+#XX..X           ",
" XX      X  XXX.+*#*.XO+ X  X       X     X       X X &&           XX         .O-#O#X +O XX  XX     ",
"            XXXX#%$.& %O         X  XX     X      X XXX                     XXX.O*$& O* .XX      XX ",
"                 $&& $.&                              X        X                .&&& & X   XX.OX  XX",
"X           X    .&    X  X          X           X       X         X            &&   &     XX.-.O*.X",
"X                              XX  XX          X  X X    X       X                        XXX.*O*OXX",
"                        X                  XX   X          X         X     XX             XXXX*%%.XX",
" X                 X          XX             X        X                          X      X     &.OXXX",
"    X     X X             X             X         X         X        X                 X   XX  & XXX",
"  XXXX .                 XX X     X  X        XX         X X     XXX   X   X           X   XX     XX",
"  X. X..  X  X   X        X          X    X    X     X     X X   X .  OXX    X    X XX           XXX",
"   O+ O+.XXX X     X     X       X      XXXXXXXX  X       X   X   .O..*OX           XX    X         ",
"  X.*+O+XX          X         X      X  ..XX  .  X     X          XO+O%   X   X              XX     ",
"  XX.*%%        X       X      X  X +. XO+X           ;XX X         +*%                     X   X   ",
" XXX #$.    X               X       O=  OO .          XX     X      #.&X X   X                      ",
"                   X      X     X    ++ *.OO          .X X  X        &         X                    ",
"      X               X              .$$$.O. X        XX   X       X       X           XX           ",
"                          X       X X &&&             X  .XX  X    X              X           X  X  ",
"X              X X   XX       X      XXX                .-XX#. XX      XX      X        X           ",
"         XX       XX X X XX     XX     X    X    X  ..XXo+:O=.XXX      XXX  XXXXXX              XXXX",
"     X         XXX X             XX           X  X  oOXXoo.@O           X   XXXXXXX     X       XXXX",
"              X   XX  X      X X X     X        X   .+. :o##.XX          X  ..XXXXXX X      X   XXXX",
" XXX         X    ..  X.    X             X        XX## >>##          X     .O.XX .X       X    XXXX",
"   XX         X    +O  +O     X                   X   & ; &&           X     O+. +OX        X  XX  X",
"           X X    .+* .* X                    X                    XX       XO*OOO    X XX     XXX  ",
"                XXXO%O%O X        X   X  X  X                X  X       X   XX.$$.X     XX    XXX   ",
" X   X          XXXX &&      X                  X                  X        XX & &      X.X   XXX   ",
"X  X            XX        X XX        XX        XXX X                 X  X              X  O X..  .X",
"   X           X                X          XX X ..                         X              X++XO+X#.X",
"              X    X       XX    XX       XXX   O+                                      XXXO-O++.+.X",
"       X   XX                               .   ++X . XX                             X  XXXXO%*O.-.X",
"        XXX X              X               %*X  -O.+O.XXX         X     X             X X    &% #OXX",
"       XXXXX   X                            @O  *#+-. XX                                   X && $.XX",
" X X    XO X .OX            X  X   X X      O% &$$+#X  X          XX      XXXXXX                &XXX",
"       XO@. O+                 X X           O &$...  X     X    XX.  X  X. XXX.                XXXX",
"       %O* O+O          X  X    X                &XXX..XXX#XXX       X    +.  .O                X X ",
"       %OO&OO       X        X       X            XX .+XX.OXXX          .X@O .*O X   X          XX  ",
"        & &&              X           X              .+..*OX   XX       +.+O *O      X           X  ",
" X      XX              XX                            O..$#X           XO%..&%           X X        ",
" X    X             X XX                       X    X &&&.  X        X   & &&&                X     ",
"     X             XXX X         X     X     X  X   X              X    XX  XX             X        ",
"  X   X         X     XX   XXX                               X X      X XXX XX           X          ",
"     X              X .O  .X.XX      X         X       X           X X  XXX XX XX X   X           X ",
" X  XXXX             XO@..+ OOX        XX         X                 X       X     X      X     X   X",
"    XXXX           X   +OO*.+OX            X                     X       X     X     X   X          ",
"      XX     XX   X   XOO*%.+O  X          X   X       X          XX   X                         X  ",
"    XXX.                #$..OXX                 X                XXX  .               X     X      X",
"   O XOO  X             X  $&XX     X   XXX                        OXX+      X  X               X   ",
"  XO@OO*                XXX&  X     X   XXXXX   X  XX            X.+OO@O        X X X  X           X",
"XXXX%%%O      X           XX      X O   ..                      XXXO@%+                      X      ",
"XXXX %%O                 X      X XX++ XO+      XX              XXX OO%              X       X    X ",
"      &&X                           .-#XOO.. X           X           $&X           XX     X OOX.O.XX",
"X      X          X                  OO&O#.O         X             X  XX                 XX ++.OO.o.",
"     XXX X                X          ..&$&.X                     XXX X   X    X             .*.+OO+.",
"             X            X   X  X    &                          .XX                 XXX     O%*.O+ ",
" X            XX          X  X         X   X   X    X           X.XX X        X      X       .$& $# ",
"             XXX                               X   X XX      X  XXXX      X        X      X   & &.  ",
"     X       XXX  X             X                             XXXXX..XX    X   X      X   X   XX    ",
"    X         XX X        X                              X    XXXX.O.XXO        X      X      XX    ",
"    X       XOXXX...XX   XX   X XX   X  XXXX      X            XXX.+..+oXXXX                        ",
"   X    X   XO+XX+O...          XX      XXXX      .  X     X XO.XX.+.#-.XXXX      X  X   X          ",
"       XX    &@ .O..+. XX       XXXX    X XX.X  X.+.XX      XX.-.;oo.-#   XXX          X            ",
"  X           OO..#O.X         XXXXX  X   X..O  X.-OX..X  X XX.OO.>>.#.X XXX     X  X               ",
"   X           %.&&.    XXX. XX .XXX    X  X ++ XO*.#+.X    X  .$.;>&.  X      X X  XXX             ",
"                    X    XX.+OXO...X   X     O*.X#*%=OXX X     X &  && X            XXXX     X  X   ",
"  X    X    X            XX +* +O.+     X    .O.X.$%O.XX        X   XXXX            X.XX XX    X    ",
"         X            X    XO@O+OO+       X   && &&..XXX   X        XXXX   XX  XX   X..XX..         ",
"       X  X  XX       X      .$%.OO X                                    X        X  O+  O+XX       ",
"                             &&&&.#X     X         X                         X       .@OX%O XX      ",
"X         X          X     X    &                   X  X         X                    O$OO          ",
"  X                    X       X      X   X       X    X                  X       X     &           ",
"  X     XX          X                 X     X       XXXX   .       X              X        X       X",
"     X            X X   X    X  X                   X.OX  O               X X    X                 X",
"X               X          X                   X    X.+..OO.                X XX               X   X",
"                                   X X   X          XX+#.OOX                XXXX   X                ",
"   X    XX.OXX ..      X         X       X         X  &.&.            X X OXXX..                X   ",
"        XXO+XX O.  X   XXX       X         X  X        &&               XX+OX.+OX   X        X      ",
"XX      ..O*. *OXX   X   X           X                X            X    OX+OXO+.   XX               ",
"        .+.%..%.X      X               XX .  X        X X              X%OOO.%.       X      X      ",
"         .&&&&&     X    X      XX  XX.. X.OXXX                       .XOO&&&& XX   X   XXXX        ",
"     X      X X                 XXX XX.+O..-.X   X     X        X     XX  X             XXXXXX    X ",
"X    X    X X    X            X XXXXXXX.=O.-.X .  X    XX             XX         X    XX  XXXX     X",
"                   X     XX     XXXXXXX.O@OO#X.+.            X                         X.+OXXO%     ",
"       X   X    X       X X            X %%$& O%       X       X     X                   O-. #O..XXX",
"   XX                       X   XX   XX  %&& &%            XX                    X      X.OO *OO..XX",
"      X  X                       X  XXX  && X&   XXX    X                X            XX X#$.$.O.XXX",
"               X  X X     XX                X      X X   X  X                         X  XX&&&& XXXX"
};
